<svg width="369" height="52" viewBox="0 0 369 52" fill="none" xmlns="http://www.w3.org/2000/svg">
<path d="M76.5938 36.0098V14.4062H71.6367V40H88.582V36.0098H76.5938ZM103.182 40H108.139V39.7012C107.893 39.2207 107.706 38.6465 107.577 37.9785C107.448 37.3105 107.384 36.4668 107.384 35.4473V27.291C107.384 26.1895 107.179 25.2227 106.768 24.3906C106.358 23.5469 105.79 22.8496 105.063 22.2988C104.337 21.748 103.475 21.332 102.479 21.0508C101.495 20.7695 100.429 20.6289 99.2801 20.6289C98.0027 20.6289 96.866 20.793 95.8699 21.1211C94.8855 21.4375 94.0535 21.8711 93.3738 22.4219C92.6824 22.9727 92.1551 23.6113 91.7918 24.3379C91.4402 25.0645 91.2645 25.832 91.2645 26.6406H96.1512C96.1512 26.3008 96.198 25.9902 96.2918 25.709C96.3973 25.4277 96.5555 25.1875 96.7664 24.9883C97.0008 24.7656 97.3055 24.5957 97.6805 24.4785C98.0555 24.3496 98.5008 24.2852 99.0164 24.2852C99.6023 24.2852 100.112 24.3613 100.546 24.5137C100.991 24.6543 101.36 24.8594 101.653 25.1289C101.934 25.3867 102.145 25.6973 102.286 26.0605C102.427 26.4121 102.497 26.8105 102.497 27.2559V28.3809H99.7723C98.366 28.3809 97.118 28.5098 96.0281 28.7676C94.95 29.0137 94.0418 29.377 93.3035 29.8574C92.4832 30.3848 91.868 31.0586 91.4578 31.8789C91.0477 32.6875 90.8426 33.6191 90.8426 34.6738C90.8426 35.4941 91.0066 36.2559 91.3348 36.959C91.6629 37.6504 92.1199 38.248 92.7059 38.752C93.2918 39.2559 93.9891 39.6484 94.7977 39.9297C95.618 40.2109 96.5145 40.3516 97.4871 40.3516C98.0848 40.3516 98.6414 40.293 99.157 40.1758C99.6727 40.0703 100.147 39.918 100.581 39.7188C101.003 39.5312 101.389 39.3086 101.741 39.0508C102.093 38.793 102.403 38.5176 102.673 38.2246C102.731 38.5645 102.802 38.8867 102.884 39.1914C102.966 39.4961 103.065 39.7656 103.182 40ZM98.5242 36.5723C98.0672 36.5723 97.6629 36.5195 97.3113 36.4141C96.9715 36.2969 96.6844 36.1445 96.45 35.957C96.2156 35.7578 96.034 35.5176 95.9051 35.2363C95.7879 34.9434 95.7293 34.627 95.7293 34.2871C95.7293 33.8535 95.8113 33.4551 95.9754 33.0918C96.1395 32.7168 96.3914 32.3945 96.7313 32.125C97.0711 31.8672 97.5105 31.668 98.0496 31.5273C98.5887 31.375 99.2391 31.2988 100.001 31.2988H102.497V34.5684C102.356 34.8145 102.163 35.0605 101.917 35.3066C101.671 35.541 101.378 35.752 101.038 35.9395C100.698 36.127 100.317 36.2793 99.8953 36.3965C99.4734 36.5137 99.0164 36.5723 98.5242 36.5723ZM114.162 20.9805H109.961V40H114.408V25.7617C114.466 25.6094 114.531 25.4688 114.601 25.3398C114.671 25.2109 114.754 25.0996 114.847 25.0059C114.976 24.877 115.123 24.7773 115.287 24.707C115.451 24.6367 115.638 24.6016 115.849 24.6016C116.037 24.6016 116.213 24.6309 116.377 24.6895C116.541 24.7363 116.687 24.8242 116.816 24.9531C116.933 25.082 117.027 25.2637 117.097 25.498C117.168 25.7324 117.203 26.0312 117.203 26.3945V40H121.509V25.9727C121.509 25.832 121.509 25.7207 121.509 25.6387C121.509 25.5566 121.509 25.5039 121.509 25.4805C121.568 25.3516 121.638 25.2402 121.72 25.1465C121.802 25.041 121.896 24.9473 122.002 24.8652C122.13 24.7832 122.265 24.7188 122.406 24.6719C122.558 24.625 122.728 24.6016 122.916 24.6016C123.091 24.6016 123.261 24.6309 123.425 24.6895C123.601 24.7363 123.754 24.8242 123.882 24.9531C124.011 25.0938 124.111 25.2812 124.181 25.5156C124.263 25.75 124.304 26.0488 124.304 26.4121V40H128.752V26.4297C128.752 25.375 128.646 24.4844 128.435 23.7578C128.236 23.0195 127.955 22.416 127.591 21.9473C127.216 21.4902 126.777 21.1562 126.273 20.9453C125.781 20.7344 125.248 20.6289 124.673 20.6289C124.216 20.6289 123.795 20.6875 123.408 20.8047C123.021 20.9219 122.675 21.0859 122.371 21.2969C122.125 21.4609 121.896 21.6602 121.685 21.8945C121.486 22.1172 121.304 22.3691 121.14 22.6504C121.035 22.3574 120.906 22.0996 120.754 21.877C120.613 21.6426 120.443 21.4434 120.244 21.2793C119.986 21.0566 119.681 20.8926 119.33 20.7871C118.978 20.6816 118.58 20.6289 118.134 20.6289C117.22 20.6289 116.441 20.8691 115.796 21.3496C115.164 21.8184 114.666 22.4629 114.302 23.2832L114.162 20.9805ZM148.08 30.6836V30.3145C148.08 29.166 147.975 28.0879 147.764 27.0801C147.565 26.0723 147.254 25.1641 146.832 24.3555C146.563 23.8516 146.252 23.3887 145.901 22.9668C145.549 22.5332 145.157 22.1641 144.723 21.8594C144.184 21.4609 143.569 21.1562 142.877 20.9453C142.198 20.7344 141.448 20.6289 140.627 20.6289C140.03 20.6289 139.473 20.6934 138.957 20.8223C138.454 20.9395 137.985 21.1211 137.551 21.3672C137.246 21.5312 136.959 21.7305 136.69 21.9648C136.42 22.1875 136.168 22.4336 135.934 22.7031V13H131.047V40H135.442L135.67 37.9785C135.87 38.2363 136.08 38.4766 136.303 38.6992C136.526 38.9102 136.766 39.1035 137.024 39.2793C137.504 39.6309 138.043 39.8945 138.641 40.0703C139.25 40.2578 139.924 40.3516 140.662 40.3516C141.471 40.3516 142.209 40.2461 142.877 40.0352C143.557 39.8359 144.166 39.543 144.705 39.1562C145.303 38.7461 145.819 38.2305 146.252 37.6094C146.698 36.9883 147.055 36.2969 147.325 35.5352C147.571 34.8438 147.758 34.0938 147.887 33.2852C148.016 32.4648 148.08 31.5977 148.08 30.6836ZM143.194 30.3145V30.6836C143.194 31.1758 143.17 31.6504 143.123 32.1074C143.088 32.5645 143.024 32.9863 142.93 33.373C142.813 33.9004 142.637 34.375 142.403 34.7969C142.18 35.207 141.887 35.541 141.524 35.7988C141.266 35.9863 140.961 36.1328 140.61 36.2383C140.258 36.3438 139.866 36.3965 139.432 36.3965C138.928 36.3965 138.477 36.3379 138.079 36.2207C137.692 36.1035 137.352 35.9336 137.059 35.7109C136.813 35.5352 136.596 35.3301 136.409 35.0957C136.233 34.8496 136.075 34.5801 135.934 34.2871V26.7109C136.039 26.4883 136.157 26.2832 136.286 26.0957C136.414 25.8965 136.555 25.7207 136.707 25.5684C137.024 25.252 137.405 25.0117 137.85 24.8477C138.295 24.6836 138.811 24.6016 139.397 24.6016C139.83 24.6016 140.217 24.6543 140.557 24.7598C140.897 24.8535 141.202 25 141.471 25.1992C141.881 25.5156 142.186 25.8672 142.385 26.2539C142.596 26.6289 142.766 27.0566 142.895 27.5371C143 27.9473 143.077 28.3867 143.123 28.8555C143.17 29.3242 143.194 29.8105 143.194 30.3145ZM150.253 30.3496V30.7188C150.253 32.1016 150.423 33.3848 150.763 34.5684C151.103 35.7402 151.595 36.7539 152.239 37.6094C152.872 38.4648 153.646 39.1387 154.56 39.6309C155.486 40.1113 156.529 40.3516 157.689 40.3516C158.755 40.3516 159.693 40.1465 160.501 39.7363C161.31 39.3262 162.013 38.752 162.611 38.0137L162.857 40H167.269V13H162.364V22.6855C161.779 22.0293 161.105 21.5254 160.343 21.1738C159.593 20.8105 158.72 20.6289 157.724 20.6289C156.54 20.6289 155.486 20.8633 154.56 21.332C153.646 21.8008 152.866 22.4629 152.222 23.3184C151.577 24.1738 151.085 25.1992 150.745 26.3945C150.417 27.5898 150.253 28.9082 150.253 30.3496ZM155.14 30.7188V30.3496C155.14 29.5527 155.21 28.8086 155.351 28.1172C155.491 27.4141 155.714 26.7988 156.019 26.2715C156.323 25.7559 156.716 25.3516 157.196 25.0586C157.689 24.7539 158.28 24.6016 158.972 24.6016C159.804 24.6016 160.495 24.7832 161.046 25.1465C161.597 25.498 162.036 25.9961 162.364 26.6406V34.3398C162.036 34.9727 161.591 35.4707 161.029 35.834C160.478 36.1973 159.78 36.3789 158.937 36.3789C158.245 36.3789 157.659 36.2324 157.179 35.9395C156.698 35.6465 156.306 35.2422 156.001 34.7266C155.696 34.2227 155.474 33.6309 155.333 32.9512C155.204 32.2598 155.14 31.5156 155.14 30.7188ZM182.467 40H187.424V39.7012C187.178 39.2207 186.99 38.6465 186.861 37.9785C186.732 37.3105 186.668 36.4668 186.668 35.4473V27.291C186.668 26.1895 186.463 25.2227 186.053 24.3906C185.643 23.5469 185.074 22.8496 184.348 22.2988C183.621 21.748 182.76 21.332 181.764 21.0508C180.779 20.7695 179.713 20.6289 178.564 20.6289C177.287 20.6289 176.15 20.793 175.154 21.1211C174.17 21.4375 173.338 21.8711 172.658 22.4219C171.967 22.9727 171.439 23.6113 171.076 24.3379C170.725 25.0645 170.549 25.832 170.549 26.6406H175.436C175.436 26.3008 175.482 25.9902 175.576 25.709C175.682 25.4277 175.84 25.1875 176.051 24.9883C176.285 24.7656 176.59 24.5957 176.965 24.4785C177.34 24.3496 177.785 24.2852 178.301 24.2852C178.887 24.2852 179.396 24.3613 179.83 24.5137C180.275 24.6543 180.645 24.8594 180.938 25.1289C181.219 25.3867 181.43 25.6973 181.57 26.0605C181.711 26.4121 181.781 26.8105 181.781 27.2559V28.3809H179.057C177.65 28.3809 176.402 28.5098 175.312 28.7676C174.234 29.0137 173.326 29.377 172.588 29.8574C171.768 30.3848 171.152 31.0586 170.742 31.8789C170.332 32.6875 170.127 33.6191 170.127 34.6738C170.127 35.4941 170.291 36.2559 170.619 36.959C170.947 37.6504 171.404 38.248 171.99 38.752C172.576 39.2559 173.273 39.6484 174.082 39.9297C174.902 40.2109 175.799 40.3516 176.771 40.3516C177.369 40.3516 177.926 40.293 178.441 40.1758C178.957 40.0703 179.432 39.918 179.865 39.7188C180.287 39.5312 180.674 39.3086 181.025 39.0508C181.377 38.793 181.688 38.5176 181.957 38.2246C182.016 38.5645 182.086 38.8867 182.168 39.1914C182.25 39.4961 182.35 39.7656 182.467 40ZM177.809 36.5723C177.352 36.5723 176.947 36.5195 176.596 36.4141C176.256 36.2969 175.969 36.1445 175.734 35.957C175.5 35.7578 175.318 35.5176 175.189 35.2363C175.072 34.9434 175.014 34.627 175.014 34.2871C175.014 33.8535 175.096 33.4551 175.26 33.0918C175.424 32.7168 175.676 32.3945 176.016 32.125C176.355 31.8672 176.795 31.668 177.334 31.5273C177.873 31.375 178.523 31.2988 179.285 31.2988H181.781V34.5684C181.641 34.8145 181.447 35.0605 181.201 35.3066C180.955 35.541 180.662 35.752 180.322 35.9395C179.982 36.127 179.602 36.2793 179.18 36.3965C178.758 36.5137 178.301 36.5723 177.809 36.5723ZM209.945 40H216.818C217.955 40 219.021 39.8594 220.017 39.5781C221.025 39.2969 221.945 38.8926 222.777 38.3652C223.492 37.9199 224.148 37.3691 224.746 36.7129C225.343 36.0449 225.865 35.3184 226.31 34.5332C226.779 33.6543 227.142 32.6875 227.4 31.6328C227.658 30.5781 227.787 29.459 227.787 28.2754V26.166C227.787 24.9355 227.646 23.7754 227.365 22.6855C227.095 21.5957 226.709 20.5996 226.205 19.6973C225.771 18.959 225.261 18.2793 224.675 17.6582C224.101 17.0254 223.445 16.4922 222.707 16.0586C221.863 15.5312 220.925 15.127 219.894 14.8457C218.863 14.5527 217.755 14.4062 216.572 14.4062H209.945V40ZM214.92 18.4141H216.572C217.17 18.4141 217.72 18.4844 218.224 18.625C218.74 18.7539 219.209 18.9414 219.63 19.1875C220.181 19.5156 220.662 19.9375 221.072 20.4531C221.494 20.9688 221.834 21.5547 222.091 22.2109C222.302 22.7617 222.461 23.3711 222.566 24.0391C222.683 24.6953 222.742 25.3926 222.742 26.1309V28.2754C222.742 29.0605 222.683 29.793 222.566 30.4727C222.461 31.1406 222.302 31.75 222.091 32.3008C221.834 32.9336 221.523 33.4902 221.16 33.9707C220.808 34.4395 220.41 34.8262 219.964 35.1309C219.531 35.4238 219.05 35.6465 218.523 35.7988C217.996 35.9512 217.427 36.0273 216.818 36.0273H214.92V18.4141ZM239.276 40.3516C241.116 40.3516 242.709 39.9941 244.057 39.2793C245.405 38.5645 246.389 37.7676 247.01 36.8887L244.567 34.252C244.004 34.9785 243.272 35.5234 242.37 35.8867C241.467 36.25 240.536 36.4316 239.575 36.4316C238.895 36.4316 238.268 36.3262 237.694 36.1152C237.12 35.9043 236.61 35.6055 236.164 35.2188C235.731 34.8438 235.385 34.4277 235.127 33.9707C234.87 33.502 234.659 32.8867 234.495 32.125V32.0723H247.397V29.998C247.397 28.6035 247.204 27.332 246.817 26.1836C246.43 25.0234 245.868 24.0332 245.129 23.2129C244.379 22.3926 243.465 21.7598 242.387 21.3145C241.321 20.8574 240.102 20.6289 238.731 20.6289C237.407 20.6289 236.182 20.8691 235.057 21.3496C233.932 21.8301 232.959 22.5039 232.139 23.3711C231.319 24.2383 230.68 25.2754 230.223 26.4824C229.766 27.6777 229.538 29.002 229.538 30.4551V31.1582C229.538 32.4355 229.766 33.6367 230.223 34.7617C230.692 35.875 231.354 36.8418 232.209 37.6621C233.065 38.4941 234.09 39.1504 235.286 39.6309C236.481 40.1113 237.811 40.3516 239.276 40.3516ZM238.696 24.584C239.317 24.584 239.862 24.6836 240.33 24.8828C240.811 25.0703 241.215 25.3281 241.543 25.6562C241.871 25.9961 242.129 26.3945 242.317 26.8516C242.504 27.3086 242.598 27.7949 242.598 28.3105V28.6973H234.582C234.7 28.0762 234.875 27.5137 235.11 27.0098C235.344 26.5059 235.637 26.0723 235.989 25.709C236.329 25.3457 236.727 25.0703 237.184 24.8828C237.641 24.6836 238.145 24.584 238.696 24.584ZM267.007 30.6836V30.3145C267.007 29.166 266.902 28.0879 266.691 27.0801C266.491 26.0723 266.181 25.1641 265.759 24.3555C265.489 23.8516 265.179 23.3887 264.827 22.9668C264.476 22.5332 264.083 22.1641 263.65 21.8594C263.111 21.4609 262.495 21.1562 261.804 20.9453C261.124 20.7344 260.374 20.6289 259.554 20.6289C258.956 20.6289 258.4 20.6934 257.884 20.8223C257.38 20.9395 256.911 21.1211 256.478 21.3672C256.173 21.5312 255.886 21.7305 255.616 21.9648C255.347 22.1875 255.095 22.4336 254.861 22.7031V13H249.974V40H254.368L254.597 37.9785C254.796 38.2363 255.007 38.4766 255.23 38.6992C255.452 38.9102 255.693 39.1035 255.95 39.2793C256.431 39.6309 256.97 39.8945 257.568 40.0703C258.177 40.2578 258.851 40.3516 259.589 40.3516C260.398 40.3516 261.136 40.2461 261.804 40.0352C262.484 39.8359 263.093 39.543 263.632 39.1562C264.23 38.7461 264.745 38.2305 265.179 37.6094C265.624 36.9883 265.982 36.2969 266.251 35.5352C266.497 34.8438 266.685 34.0938 266.814 33.2852C266.943 32.4648 267.007 31.5977 267.007 30.6836ZM262.12 30.3145V30.6836C262.12 31.1758 262.097 31.6504 262.05 32.1074C262.015 32.5645 261.95 32.9863 261.857 33.373C261.739 33.9004 261.564 34.375 261.329 34.7969C261.107 35.207 260.814 35.541 260.45 35.7988C260.193 35.9863 259.888 36.1328 259.536 36.2383C259.185 36.3438 258.792 36.3965 258.359 36.3965C257.855 36.3965 257.404 36.3379 257.005 36.2207C256.618 36.1035 256.279 35.9336 255.986 35.7109C255.739 35.5352 255.523 35.3301 255.335 35.0957C255.159 34.8496 255.001 34.5801 254.861 34.2871V26.7109C254.966 26.4883 255.083 26.2832 255.212 26.0957C255.341 25.8965 255.482 25.7207 255.634 25.5684C255.95 25.252 256.331 25.0117 256.777 24.8477C257.222 24.6836 257.738 24.6016 258.323 24.6016C258.757 24.6016 259.144 24.6543 259.484 24.7598C259.823 24.8535 260.128 25 260.398 25.1992C260.808 25.5156 261.113 25.8672 261.312 26.2539C261.523 26.6289 261.693 27.0566 261.821 27.5371C261.927 27.9473 262.003 28.3867 262.05 28.8555C262.097 29.3242 262.12 29.8105 262.12 30.3145ZM282.1 40H286.529V20.9805H281.625V34.3223C281.473 34.627 281.291 34.9023 281.08 35.1484C280.869 35.3945 280.629 35.6055 280.359 35.7812C280.043 35.9805 279.674 36.1328 279.252 36.2383C278.842 36.3438 278.379 36.3965 277.863 36.3965C277.289 36.3965 276.803 36.3262 276.404 36.1855C276.006 36.0449 275.684 35.8105 275.438 35.4824C275.191 35.166 275.01 34.7441 274.893 34.2168C274.787 33.6895 274.734 33.0391 274.734 32.2656V20.9805H269.848V32.2305C269.848 33.6719 270.006 34.9082 270.322 35.9395C270.65 36.959 271.107 37.7969 271.693 38.4531C272.279 39.1211 272.982 39.6074 273.803 39.9121C274.623 40.2168 275.525 40.3691 276.51 40.3691C277.588 40.3691 278.578 40.0996 279.48 39.5605C280.395 39.0215 281.174 38.2773 281.818 37.3281L282.1 40ZM289.018 30.3496V30.7188C289.018 32.1016 289.194 33.3848 289.546 34.5684C289.909 35.7402 290.425 36.7539 291.093 37.6094C291.761 38.4648 292.563 39.1387 293.501 39.6309C294.45 40.1113 295.516 40.3516 296.7 40.3516C297.298 40.3516 297.854 40.2871 298.37 40.1582C298.897 40.0293 299.378 39.8477 299.811 39.6133C300.104 39.4492 300.38 39.2617 300.637 39.0508C300.895 38.8398 301.141 38.6055 301.376 38.3477V39.4375C301.376 40.082 301.282 40.6621 301.095 41.1777C300.919 41.6934 300.661 42.127 300.321 42.4785C299.946 42.8652 299.477 43.1582 298.915 43.3574C298.364 43.5566 297.731 43.6562 297.016 43.6562C296.571 43.6562 296.137 43.6094 295.716 43.5156C295.305 43.4336 294.907 43.3047 294.52 43.1289C294.122 42.9531 293.741 42.7246 293.378 42.4434C293.014 42.1738 292.675 41.8574 292.358 41.4941L290.161 44.4648C290.571 44.9922 291.063 45.4434 291.637 45.8184C292.212 46.2051 292.821 46.5215 293.466 46.7676C294.11 47.0137 294.761 47.1953 295.417 47.3125C296.073 47.4297 296.688 47.4883 297.262 47.4883C298.598 47.4883 299.817 47.3066 300.919 46.9434C302.032 46.5918 302.987 46.0703 303.784 45.3789C304.569 44.6875 305.179 43.8379 305.612 42.8301C306.057 41.8223 306.28 40.6738 306.28 39.3848V20.9805H301.833L301.639 22.791C301.405 22.498 301.147 22.2344 300.866 22C300.585 21.7539 300.28 21.543 299.952 21.3672C299.518 21.1211 299.032 20.9395 298.493 20.8223C297.966 20.6934 297.38 20.6289 296.735 20.6289C295.54 20.6289 294.468 20.8633 293.518 21.332C292.569 21.8008 291.761 22.4629 291.093 23.3184C290.425 24.1738 289.909 25.1992 289.546 26.3945C289.194 27.5898 289.018 28.9082 289.018 30.3496ZM293.923 30.7188V30.3496C293.923 29.5527 294.005 28.8086 294.169 28.1172C294.333 27.4141 294.585 26.7988 294.925 26.2715C295.253 25.7559 295.669 25.3516 296.173 25.0586C296.677 24.7539 297.274 24.6016 297.966 24.6016C298.341 24.6016 298.686 24.6367 299.003 24.707C299.331 24.7773 299.63 24.877 299.899 25.0059C300.216 25.1582 300.497 25.3574 300.743 25.6035C300.989 25.8496 301.2 26.1367 301.376 26.4648V34.5156C301.212 34.8086 301.018 35.0723 300.796 35.3066C300.573 35.541 300.315 35.7402 300.022 35.9043C299.741 36.0566 299.425 36.1738 299.073 36.2559C298.733 36.3379 298.352 36.3789 297.93 36.3789C297.239 36.3789 296.641 36.2324 296.137 35.9395C295.634 35.6465 295.218 35.2422 294.889 34.7266C294.561 34.2227 294.315 33.6309 294.151 32.9512C293.999 32.2598 293.923 31.5156 293.923 30.7188ZM308.839 30.3496V30.7188C308.839 32.1016 309.015 33.3848 309.367 34.5684C309.73 35.7402 310.246 36.7539 310.914 37.6094C311.582 38.4648 312.384 39.1387 313.322 39.6309C314.271 40.1113 315.337 40.3516 316.521 40.3516C317.119 40.3516 317.675 40.2871 318.191 40.1582C318.718 40.0293 319.199 39.8477 319.632 39.6133C319.925 39.4492 320.201 39.2617 320.459 39.0508C320.716 38.8398 320.962 38.6055 321.197 38.3477V39.4375C321.197 40.082 321.103 40.6621 320.916 41.1777C320.74 41.6934 320.482 42.127 320.142 42.4785C319.767 42.8652 319.298 43.1582 318.736 43.3574C318.185 43.5566 317.552 43.6562 316.837 43.6562C316.392 43.6562 315.959 43.6094 315.537 43.5156C315.127 43.4336 314.728 43.3047 314.341 43.1289C313.943 42.9531 313.562 42.7246 313.199 42.4434C312.836 42.1738 312.496 41.8574 312.179 41.4941L309.982 44.4648C310.392 44.9922 310.884 45.4434 311.459 45.8184C312.033 46.2051 312.642 46.5215 313.287 46.7676C313.931 47.0137 314.582 47.1953 315.238 47.3125C315.894 47.4297 316.509 47.4883 317.084 47.4883C318.42 47.4883 319.638 47.3066 320.74 46.9434C321.853 46.5918 322.808 46.0703 323.605 45.3789C324.39 44.6875 325 43.8379 325.433 42.8301C325.879 41.8223 326.101 40.6738 326.101 39.3848V20.9805H321.654L321.461 22.791C321.226 22.498 320.968 22.2344 320.687 22C320.406 21.7539 320.101 21.543 319.773 21.3672C319.339 21.1211 318.853 20.9395 318.314 20.8223C317.787 20.6934 317.201 20.6289 316.556 20.6289C315.361 20.6289 314.289 20.8633 313.339 21.332C312.39 21.8008 311.582 22.4629 310.914 23.3184C310.246 24.1738 309.73 25.1992 309.367 26.3945C309.015 27.5898 308.839 28.9082 308.839 30.3496ZM313.744 30.7188V30.3496C313.744 29.5527 313.826 28.8086 313.99 28.1172C314.154 27.4141 314.406 26.7988 314.746 26.2715C315.074 25.7559 315.49 25.3516 315.994 25.0586C316.498 24.7539 317.095 24.6016 317.787 24.6016C318.162 24.6016 318.507 24.6367 318.824 24.707C319.152 24.7773 319.451 24.877 319.72 25.0059C320.037 25.1582 320.318 25.3574 320.564 25.6035C320.81 25.8496 321.021 26.1367 321.197 26.4648V34.5156C321.033 34.8086 320.839 35.0723 320.617 35.3066C320.394 35.541 320.136 35.7402 319.843 35.9043C319.562 36.0566 319.246 36.1738 318.894 36.2559C318.554 36.3379 318.173 36.3789 317.752 36.3789C317.06 36.3789 316.462 36.2324 315.959 35.9395C315.455 35.6465 315.039 35.2422 314.711 34.7266C314.382 34.2227 314.136 33.6309 313.972 32.9512C313.82 32.2598 313.744 31.5156 313.744 30.7188ZM338.381 40.3516C340.221 40.3516 341.815 39.9941 343.163 39.2793C344.51 38.5645 345.495 37.7676 346.116 36.8887L343.672 34.252C343.11 34.9785 342.377 35.5234 341.475 35.8867C340.573 36.25 339.641 36.4316 338.68 36.4316C338 36.4316 337.373 36.3262 336.799 36.1152C336.225 35.9043 335.715 35.6055 335.27 35.2188C334.836 34.8438 334.491 34.4277 334.233 33.9707C333.975 33.502 333.764 32.8867 333.6 32.125V32.0723H346.502V29.998C346.502 28.6035 346.309 27.332 345.922 26.1836C345.536 25.0234 344.973 24.0332 344.235 23.2129C343.485 22.3926 342.571 21.7598 341.493 21.3145C340.426 20.8574 339.207 20.6289 337.836 20.6289C336.512 20.6289 335.288 20.8691 334.163 21.3496C333.038 21.8301 332.065 22.5039 331.245 23.3711C330.424 24.2383 329.786 25.2754 329.329 26.4824C328.871 27.6777 328.643 29.002 328.643 30.4551V31.1582C328.643 32.4355 328.871 33.6367 329.329 34.7617C329.797 35.875 330.459 36.8418 331.315 37.6621C332.17 38.4941 333.196 39.1504 334.391 39.6309C335.586 40.1113 336.916 40.3516 338.381 40.3516ZM337.801 24.584C338.422 24.584 338.967 24.6836 339.436 24.8828C339.916 25.0703 340.321 25.3281 340.649 25.6562C340.977 25.9961 341.235 26.3945 341.422 26.8516C341.61 27.3086 341.704 27.7949 341.704 28.3105V28.6973H333.688C333.805 28.0762 333.981 27.5137 334.215 27.0098C334.45 26.5059 334.743 26.0723 335.094 25.709C335.434 25.3457 335.832 25.0703 336.289 24.8828C336.746 24.6836 337.25 24.584 337.801 24.584ZM362.632 20.6289C361.355 20.6289 360.177 20.9395 359.099 21.5605C358.021 22.1699 357.095 23.0137 356.321 24.0918L356.286 23.6699L356.093 20.9805H351.54V40H356.427V28.5742C356.65 28.0352 356.931 27.5664 357.271 27.168C357.611 26.7695 358.021 26.4414 358.501 26.1836C358.9 25.9609 359.351 25.7969 359.855 25.6914C360.37 25.5742 360.945 25.5156 361.577 25.5156C362.187 25.5156 362.825 25.5566 363.493 25.6387C364.173 25.709 364.835 25.8203 365.48 25.9727L366.2 21.1035C365.814 20.9863 365.304 20.8809 364.671 20.7871C364.05 20.6816 363.37 20.6289 362.632 20.6289Z" fill="#6F18D9"/>
<path d="M25.5 20.8889V3L3 31.1111H20.5V49L43 20.8889H25.5Z" stroke="#6F18D9" stroke-width="6" stroke-linecap="round" stroke-linejoin="round"/>
</svg>
