<svg width="152" height="152" viewBox="0 0 152 152" fill="none" xmlns="https://www.w3.org/2000/svg">
<circle cx="76" cy="76" r="76" fill="#9900F0"/>
<path fill-rule="evenodd" clip-rule="evenodd" d="M41.0078 76.0917V52.5197C41.0078 45.3526 43.3856 40.1763 47.1108 37.9863C50.836 35.7964 54.0063 35 58.0486 35C63.1211 35 67.2426 36.1547 70.6508 38.3049L67.0445 46.1091C65.063 45.1933 62.923 44.6757 60.4263 44.6757C54.9574 44.6757 52.1437 47.4629 52.1437 53.0771V76.1315L41.0078 76.0917ZM52.1834 89.1519V109.618H41.0078V89.1519H52.1834ZM106.476 56.4616C112.975 58.8506 118.88 62.9916 122.288 70.4773C125.696 77.8436 125.696 87.5989 122.249 94.9651C118.84 102.331 112.936 106.472 106.436 108.861C100.135 111.25 93.8341 111.25 87.3348 108.861C81.0337 106.472 75.0496 102.331 71.6415 94.9651C70.5715 92.6159 69.8185 90.0277 69.4222 87.3201H29V77.963H69.5015C69.8978 75.3351 70.6111 72.7868 71.6811 70.4773C75.0893 62.9916 81.0733 58.8506 87.3744 56.4616C93.8737 53.9531 100.175 53.9531 106.476 56.4616ZM96.9648 100.699C101.403 100.699 105.327 99.1459 108.735 95.9207C112.262 92.6955 114.006 88.3554 114.006 82.7411C114.006 77.0074 112.262 72.6673 108.735 69.4421C105.327 66.2567 101.403 64.5843 96.9648 64.5843C92.5263 64.5843 88.603 66.2169 85.0759 69.4421C81.6678 72.6673 79.9241 77.0472 79.9241 82.7411C79.9241 88.3554 81.6678 92.6955 85.0759 95.9207C88.603 99.1459 92.5263 100.699 96.9648 100.699ZM110.954 81.5865C110.954 81.7509 110.951 81.9145 110.946 82.077C110.951 82.2312 110.954 82.3862 110.954 82.5421C110.954 84.4135 110.637 86.1257 109.924 87.6786C109.606 88.3554 108.695 88.4749 108.219 87.8776L106.159 85.3691C105.961 85.1302 105.881 84.8117 105.961 84.4932C106.079 83.8561 106.159 83.1792 106.159 82.5023V81.6263C106.159 80.9096 106.079 80.2725 105.961 79.6354C105.881 79.3169 105.961 78.9983 106.159 78.7594L108.219 76.2509C108.695 75.6537 109.606 75.7731 109.924 76.45C110.597 78.0427 110.954 79.7549 110.954 81.5865ZM106.595 75.4944L107.229 74.7379C107.823 74.0212 107.784 73.0258 107.15 72.3489C105.921 71.1942 104.534 70.3182 102.949 69.6811C101.364 69.044 99.62 68.7255 97.797 68.7255C95.9741 68.7255 94.2304 69.044 92.6452 69.6811C91.06 70.3182 89.6729 71.1942 88.4841 72.3489L88.4048 72.4285C87.5726 73.2248 87.7707 74.6185 88.7615 75.1759L89.6333 75.6935C90.307 76.1315 91.2185 75.9723 91.7733 75.375L91.8526 75.2954C92.6055 74.499 93.4774 73.9017 94.5078 73.4637C95.4985 73.0258 96.6081 72.7868 97.7574 72.7868C98.9066 72.7868 99.9766 73.0258 101.007 73.4637C102.037 73.9017 102.949 74.5388 103.702 75.2954C103.783 75.3498 103.846 75.4228 103.903 75.489C103.929 75.5196 103.954 75.5489 103.979 75.5741C104.693 76.3704 105.921 76.3306 106.595 75.4944Z" fill="white"/>
</svg>
