<svg width="128" height="128" viewBox="0 0 128 128" fill="none" xmlns="http://www.w3.org/2000/svg">
<rect width="128" height="128" fill="#836AE4"/>
<path d="M65.0708 80.7148C71.7832 80.7148 77.2247 75.2734 77.2247 68.561C77.2247 61.8487 71.7832 56.4072 65.0708 56.4072C58.3584 56.4072 52.917 61.8487 52.917 68.561C52.917 75.2734 58.3584 80.7148 65.0708 80.7148Z" fill="white"/>
<path d="M93.1393 52.3707C90.7107 48.1551 87.363 44.5412 83.3452 41.7978C79.3274 39.0544 74.7428 37.252 69.9323 36.5248L67.1576 31.7321L71.056 24.9901C70.061 24.1086 68.9774 23.3324 67.8226 22.674C66.6418 21.9807 65.3883 21.4193 64.0848 21L57.8932 31.755L60.6221 36.5019C57.8114 36.8892 55.0655 37.6528 52.4584 38.7721L46.2209 27.9713C44.9587 28.3932 43.7443 28.9466 42.5977 29.6223C41.4129 30.3138 40.2992 31.1203 39.2726 32.0302L45.4871 42.7852C43.2602 44.4663 41.2634 46.4323 39.5478 48.6328L36.8189 43.9088H24.4128C24.1348 45.2516 23.9965 46.6195 24.0001 47.9907C24.0014 49.3226 24.132 50.6512 24.3899 51.9579H32.1638L34.9156 56.7506C32.5913 62.6805 32.0652 69.1637 33.403 75.3907C34.7407 81.6177 37.8832 87.3128 42.4379 91.7648C46.9926 96.2168 52.7578 99.2285 59.0138 100.424C65.2697 101.619 71.7392 100.945 77.6145 98.4864L71.4688 87.8232C66.7022 89.4075 61.517 89.1654 56.9189 87.1436C52.3207 85.1219 48.6371 81.4647 46.5823 76.8812C44.5276 72.2976 44.2482 67.1144 45.7982 62.3365C47.3482 57.5586 50.6173 53.5266 54.9715 51.0222C59.3256 48.5179 64.4547 47.7196 69.364 48.7823C74.2733 49.845 78.6131 52.6929 81.5418 56.7738C84.4705 60.8546 85.7794 65.8776 85.2148 70.8688C84.6502 75.86 82.2522 80.4637 78.4859 83.7872L84.6316 94.4275C90.9256 89.654 95.2623 82.7485 96.8286 75.0059C98.3949 67.2633 97.0831 59.2152 93.1393 52.3707Z" fill="white"/>
</svg>
