<svg width="860" height="860" viewBox="0 0 860 860" fill="none" xmlns="http://www.w3.org/2000/svg">
<rect width="860" height="860" rx="159" fill="#40407D"/>
<path d="M198.586 689V682.272L236.876 669.827L198.965 673.965L199.565 660.667C199.565 660.667 259.592 664.142 279.653 653.245C299.714 642.347 421.125 570.331 421.125 570.331C421.125 570.331 355.318 572.7 298.577 538.082L328.464 487.544L274.756 527.153C247.768 516.384 222.747 501.229 200.703 482.301L199.85 481.196L255.706 428.036C255.706 428.036 210.655 447.841 179.378 458.959C177.896 457.765 176.483 456.489 175.144 455.137C190.941 445.282 213.056 431.732 213.056 431.732L160.011 438.618C156.852 437.196 146.616 427.089 136.696 410.853C131.013 401.708 126.039 392.141 121.816 382.237L245.691 340.227L100.522 328.351C100.522 328.351 97.9949 327.119 93.0032 317.106C89.7423 310.237 87.232 303.036 85.5158 295.628L200.64 280.782L64.2223 247.048C64.2223 247.048 53.5123 229.329 51.7116 213.283C50.2314 199.481 51.0642 185.528 54.1758 172C54.1758 172 160.643 175.601 267.016 211.483C373.389 247.364 388.237 314.611 388.237 314.611C390.733 402.452 411.963 465.276 484.563 518.499C557.163 571.721 635.924 555.675 669.728 524.816C695.698 501 663.41 487.292 663.41 487.292C663.41 487.292 709.377 483.185 745.962 489.787C787.285 497.21 810 519.667 810 519.667L198.586 689Z" fill="white"/>
</svg>
